<svg 
 xmlns="http://www.w3.org/2000/svg"
 xmlns:xlink="http://www.w3.org/1999/xlink"
 width="14px" height="12px">
<path fill-rule="evenodd"  fill="rgb(255, 255, 255)"
 d="M12.885,7.068 C12.796,7.285 12.651,7.465 12.477,7.617 L8.521,11.573 C7.957,12.137 7.043,12.137 6.479,11.573 C5.914,11.008 5.914,10.093 6.479,9.529 L8.008,8.000 L1.500,8.000 C0.672,8.000 0.000,7.328 0.000,6.500 C0.000,5.671 0.672,5.000 1.500,5.000 L8.078,5.000 L6.479,3.400 C5.914,2.836 5.914,1.922 6.479,1.358 C7.043,0.794 7.957,0.794 8.521,1.358 L12.607,5.444 C13.048,5.884 13.133,6.534 12.885,7.068 Z"/>
</svg>